<?xml version="1.0" standalone="no"?>
<!DOCTYPE svg PUBLIC "-//W3C//DTD SVG 20010904//EN"
 "http://www.w3.org/TR/2001/REC-SVG-20010904/DTD/svg10.dtd">
<svg version="1.0" xmlns="http://www.w3.org/2000/svg"
 width="634.000000pt" height="634.000000pt" viewBox="0 0 634.000000 634.000000"
 preserveAspectRatio="xMidYMid meet">
<metadata>
Created by potrace 1.11, written by Peter Selinger 2001-2013
</metadata>
<g transform="translate(0.000000,634.000000) scale(0.100000,-0.100000)"
fill="#000000" stroke="none">
<path d="M2880 6195 l0 -35 -110 0 -110 0 0 -40 0 -40 -105 0 -105 0 0 -35 0
-35 -75 0 -75 0 0 -35 c0 -33 -2 -35 -35 -35 -33 0 -35 -2 -35 -35 0 -33 -2
-35 -35 -35 -33 0 -35 -2 -35 -35 0 -33 -2 -35 -35 -35 -34 0 -35 -1 -35 -40
0 -39 -1 -40 -35 -40 -33 0 -35 -2 -35 -35 0 -34 -1 -35 -40 -35 -39 0 -40 -1
-40 -35 0 -33 -2 -35 -35 -35 l-35 0 0 -70 0 -70 -35 0 -35 0 0 -75 0 -75 -35
0 -35 0 0 -70 0 -70 -35 0 -35 0 0 -215 0 -215 -40 0 -40 0 0 -40 0 -40 -180
0 -180 0 0 -35 0 -35 -105 0 -105 0 0 -35 0 -35 -75 0 -75 0 0 -35 0 -35 -70
0 -70 0 0 -35 c0 -33 -2 -35 -35 -35 -34 0 -35 -1 -35 -40 0 -39 -1 -40 -35
-40 -33 0 -35 -2 -35 -35 0 -34 -1 -35 -40 -35 -39 0 -40 -1 -40 -35 0 -33 -2
-35 -35 -35 -33 0 -35 -2 -35 -35 0 -33 -2 -35 -35 -35 -33 0 -35 -2 -35 -35
0 -33 -2 -35 -35 -35 l-35 0 0 -75 0 -75 -35 0 -35 0 0 -70 0 -70 -40 0 -40 0
0 -75 0 -75 -35 0 -35 0 0 -430 0 -430 35 0 35 0 0 -110 0 -110 40 0 40 0 0
-70 0 -70 35 0 c33 0 35 -2 35 -35 0 -33 2 -35 35 -35 33 0 35 -2 35 -35 0
-33 2 -35 35 -35 l35 0 0 -75 0 -75 35 0 c33 0 35 -2 35 -35 l0 -35 75 0 75 0
0 -35 c0 -33 2 -35 35 -35 33 0 35 -2 35 -35 l0 -35 70 0 70 0 0 -40 0 -40 75
0 75 0 0 -35 0 -35 70 0 70 0 0 -35 0 -35 215 0 215 0 0 -35 c0 -34 1 -35 40
-35 l40 0 0 -220 0 -220 35 0 35 0 0 -70 0 -70 35 0 35 0 0 -70 0 -70 35 0 35
0 0 -75 0 -75 35 0 c33 0 35 -2 35 -35 0 -34 1 -35 40 -35 39 0 40 -1 40 -35
0 -33 2 -35 35 -35 33 0 35 -2 35 -35 0 -33 2 -35 35 -35 34 0 35 -1 35 -40 0
-39 1 -40 35 -40 33 0 35 -2 35 -35 0 -33 2 -35 35 -35 33 0 35 -2 35 -35 l0
-35 75 0 75 0 0 -35 0 -35 70 0 70 0 0 -35 0 -35 145 0 145 0 0 -35 0 -35 290
0 290 0 0 35 0 35 140 0 140 0 0 35 0 35 75 0 75 0 0 35 0 35 70 0 70 0 0 35
c0 33 2 35 35 35 33 0 35 2 35 35 0 34 1 35 40 35 l40 0 0 40 c0 39 1 40 35
40 33 0 35 2 35 35 0 33 2 35 35 35 33 0 35 2 35 35 0 33 2 35 35 35 33 0 35
2 35 35 0 33 2 35 35 35 33 0 35 2 35 35 0 34 1 35 40 35 l40 0 0 75 0 75 35
0 35 0 0 105 0 105 35 0 35 0 0 185 0 185 35 0 35 0 0 70 0 70 220 0 220 0 0
35 0 35 105 0 105 0 0 35 0 35 75 0 75 0 0 40 c0 39 1 40 35 40 33 0 35 2 35
35 l0 35 70 0 70 0 0 35 c0 33 2 35 35 35 33 0 35 2 35 35 0 34 1 35 40 35 39
0 40 1 40 35 0 33 2 35 35 35 l35 0 0 75 0 75 35 0 c33 0 35 2 35 35 0 33 2
35 35 35 l35 0 0 70 0 70 35 0 35 0 0 110 0 110 40 0 40 0 0 430 0 430 -40 0
-40 0 0 110 0 110 -35 0 -35 0 0 70 0 70 -35 0 c-34 0 -35 1 -35 40 0 39 -1
40 -35 40 l-35 0 0 70 0 70 -35 0 c-33 0 -35 2 -35 35 0 34 -1 35 -40 35 -39
0 -40 1 -40 35 l0 35 -70 0 -70 0 0 40 c0 39 -1 40 -35 40 -33 0 -35 2 -35 35
0 33 -2 35 -35 35 -33 0 -35 2 -35 35 l0 35 -110 0 -110 0 0 35 0 35 -70 0
-70 0 0 35 0 35 -220 0 -220 0 0 75 0 75 -35 0 -35 0 0 180 0 180 -35 0 -35 0
0 105 0 105 -35 0 -35 0 0 75 0 75 -40 0 c-39 0 -40 1 -40 35 0 33 -2 35 -35
35 -33 0 -35 2 -35 35 0 33 -2 35 -35 35 -33 0 -35 2 -35 35 0 33 -2 35 -35
35 -34 0 -35 1 -35 40 0 39 -1 40 -35 40 -33 0 -35 2 -35 35 0 34 -1 35 -40
35 -39 0 -40 1 -40 35 0 33 -2 35 -35 35 -33 0 -35 2 -35 35 l0 35 -70 0 -70
0 0 35 0 35 -75 0 -75 0 0 40 0 40 -140 0 -140 0 0 35 0 35 -290 0 -290 0 0
-35z m220 -2055 l0 -70 -40 0 c-39 0 -40 1 -40 35 0 33 -2 35 -35 35 -33 0
-35 2 -35 35 l0 35 75 0 75 0 0 -70z m500 35 l0 -35 70 0 70 0 0 -35 c0 -34 1
-35 40 -35 39 0 40 -1 40 -35 l0 -35 70 0 70 0 0 -40 c0 -39 1 -40 35 -40 l35
0 0 -70 0 -70 35 0 c33 0 35 -2 35 -35 0 -34 1 -35 40 -35 l40 0 0 -75 0 -75
35 0 35 0 0 -140 0 -140 35 0 35 0 0 -110 0 -110 -35 0 -35 0 0 -145 0 -145
-35 0 -35 0 0 -70 0 -70 -40 0 -40 0 0 -75 0 -75 -35 0 c-33 0 -35 -2 -35 -35
0 -33 -2 -35 -35 -35 -33 0 -35 -2 -35 -35 0 -33 -2 -35 -35 -35 -33 0 -35 -2
-35 -35 l0 -35 -75 0 -75 0 0 -35 0 -35 -70 0 -70 0 0 -40 0 -40 -180 0 -180
0 0 400 0 400 35 0 c33 0 35 2 35 35 0 33 2 35 35 35 33 0 35 2 35 35 l0 35
75 0 75 0 0 35 c0 33 2 35 35 35 33 0 35 2 35 35 0 33 2 35 35 35 l35 0 0 75
0 75 -70 0 -70 0 0 -35 c0 -33 -2 -35 -35 -35 -34 0 -35 -1 -35 -40 l0 -40
-75 0 -75 0 0 -35 c0 -33 -2 -35 -35 -35 l-35 0 0 180 0 180 35 0 c33 0 35 2
35 35 0 33 2 35 35 35 34 0 35 1 35 40 l0 40 75 0 75 0 0 35 c0 33 2 35 35 35
l35 0 0 105 0 105 -70 0 -70 0 0 -35 c0 -34 -1 -35 -40 -35 -39 0 -40 -1 -40
-35 0 -33 -2 -35 -35 -35 -33 0 -35 -2 -35 -35 0 -33 -2 -35 -35 -35 l-35 0 0
215 0 215 -35 0 c-33 0 -35 2 -35 35 l0 35 215 0 215 0 0 -35z m-790 -70 c0
-33 2 -35 35 -35 l35 0 0 -75 0 -75 35 0 c33 0 35 -2 35 -35 0 -33 2 -35 35
-35 l35 0 0 -70 0 -70 40 0 40 0 0 -180 0 -180 -40 0 c-39 0 -40 1 -40 35 0
33 -2 35 -35 35 -33 0 -35 2 -35 35 0 33 -2 35 -35 35 -33 0 -35 2 -35 35 0
33 -2 35 -35 35 -34 0 -35 1 -35 40 l0 40 -110 0 -110 0 0 -75 0 -75 35 0 c33
0 35 -2 35 -35 0 -34 1 -35 40 -35 39 0 40 -1 40 -35 0 -33 2 -35 35 -35 33 0
35 -2 35 -35 0 -33 2 -35 35 -35 34 0 35 -1 35 -40 0 -39 1 -40 35 -40 33 0
35 -2 35 -35 0 -33 2 -35 35 -35 33 0 35 -2 35 -35 0 -34 1 -35 40 -35 l40 0
0 -470 0 -470 -145 0 -145 0 0 40 0 40 -75 0 -75 0 0 35 c0 33 -2 35 -35 35
-33 0 -35 2 -35 35 0 33 -2 35 -35 35 -33 0 -35 2 -35 35 0 33 -2 35 -35 35
-33 0 -35 2 -35 35 0 33 -2 35 -35 35 -34 0 -35 1 -35 40 l0 40 -40 0 c-39 0
-40 1 -40 35 0 33 -2 35 -35 35 l-35 0 0 105 0 105 -35 0 -35 0 0 325 0 325
35 0 35 0 0 75 0 75 35 0 35 0 0 70 0 70 40 0 c39 0 40 1 40 35 0 33 2 35 35
35 33 0 35 2 35 35 0 33 2 35 35 35 34 0 35 1 35 40 0 39 1 40 35 40 33 0 35
2 35 35 l0 35 75 0 75 0 0 35 c0 33 2 35 35 35 33 0 35 -2 35 -35z"/>
</g>
</svg>
